<svg xmlns="http://www.w3.org/2000/svg" viewBox="0 0 24 24" fill="currentColor">
    <path d="M12,0c-3.3,0-3.7,0-4.9,0-1.3,0-2.2.3-2.9.6-.8.3-1.5.8-2.1,1.4-.6.6-1.1,1.3-1.4,2.1-.3.8-.5,1.6-.6,2.9,0,1.3,0,1.7,0,5s0,3.7,0,4.9c0,1.3.3,2.1.6,2.9.3.8.7,1.5,1.4,2.1.7.7,1.3,1.1,2.1,1.4.8.3,1.6.5,2.9.6,1.3,0,1.7,0,4.9,0s3.7,0,4.9,0c1.3,0,2.2-.3,2.9-.6.8-.3,1.5-.8,2.1-1.4.7-.7,1.1-1.3,1.4-2.1.3-.8.5-1.6.6-2.9,0-1.3,0-1.7,0-4.9s0-3.7,0-4.9c0-1.3-.3-2.1-.6-2.9-.3-.8-.8-1.5-1.4-2.1-.6-.6-1.3-1.1-2.1-1.4-.8-.3-1.6-.5-2.9-.6-1.3,0-1.7,0-4.9,0h0ZM10.9,2.2h1.1c3.2,0,3.6,0,4.8,0,1.2,0,1.8.2,2.2.4.6.2,1,.5,1.4.9s.7.8.9,1.4c.2.4.4,1.1.4,2.2,0,1.3,0,1.6,0,4.8s0,3.6,0,4.8c0,1.2-.2,1.8-.4,2.2-.2.5-.5,1-.9,1.4-.4.4-.8.7-1.4.9-.4.2-1.1.4-2.2.4-1.3,0-1.6,0-4.8,0s-3.6,0-4.8,0c-1.2,0-1.8-.2-2.2-.4-.5-.2-1-.5-1.4-.9-.4-.4-.7-.9-.9-1.4-.2-.4-.4-1.1-.4-2.2,0-1.3,0-1.6,0-4.8s0-3.6,0-4.8c0-1.2.2-1.8.4-2.2.2-.6.5-1,.9-1.4s.8-.7,1.4-.9c.4-.2,1.1-.4,2.2-.4,1.1,0,1.5,0,3.8,0h0ZM18.4,4.2c-.8,0-1.4.6-1.4,1.4s.6,1.4,1.4,1.4h0c.8,0,1.4-.6,1.4-1.4s-.6-1.4-1.4-1.4M12,5.8c-3.4,0-6.2,2.7-6.3,6.1,0,3.4,2.7,6.2,6.1,6.3,0,0,.1,0,.2,0,3.4,0,6.1-2.9,6.1-6.3,0-3.3-2.7-6-6.1-6.1M12,8c2.2,0,4,1.8,4,4s-1.8,4-4,4h0c-2.2,0-4-1.8-4-4s1.8-4,4-4"/>
</svg>