<?xml version="1.0" encoding="UTF-8"?>
<svg xmlns="http://www.w3.org/2000/svg" version="1.1" viewBox="0 0 1016.6 935.2">
    <style>
        #text { fill: #D1D5DB; }
        #gears { fill: #488286; }

        @media (prefers-color-scheme: light) {
            #text { fill: #313131; }
        }
    </style>
    <g id="text">
        <path d="M282,775c-11.1-1.5-151.6,4.8-120.5-2.5-7-4.8-19-7.4-21.9-16-2.3-106.3-3.3-212.4-5.4-318.8,27,4,78.2-12.9,88.4,18.6,2.2,79.7,4.2,159.7,4.3,239.6,19.4,1.3,37.6,2.6,56.3,3.8,1.8-81.2-1.1-162.9,3.8-243.8,5.4-5,9.6-14.1,17.5-15.1,23.3-.9,45.8-.4,69.2-2.1-.6,100.7-2.8,201.6-4,302.2-1.4,10.7-8.8,20-13,29.8-4.7,9-61.9,1.5-74.7,4.3h0Z"/>
        <path d="M210.6,330.6c27.2,0,19-2.2,24.2,22.3,1.7,9.1,5.2,12,14.5,11.8,55.6-3.5,44.9,12.1,47.8-45.1.2-3.5-1.5-4.3-4.3-4.6-38.1-6.4-80.4-4.2-116.4-15.7-12.3-10.1-15.5-22.9-14.7-38.7,2.9-35.6-.8-72.4,3.6-107.4,5.4-5.5,8.7-15.1,16.7-16.6,22.1-1.3,44.2-2.5,66.4-3.6,30.5-.6,61.5-7.7,91.1,2.3,7.4,2.8,26.6,4.8,28.9,11.8,1.2,22.7,2.5,45.6,3.3,68.3-14.8,20-40.7,11.7-62.7,15.4-3.8.3-5.3-1-6.2-4.5-11.5-37.5-.1-25.2-54.7-22.6-8.7,1-6,34.9-8.6,44,35.4,3.8,70.3,7.2,105.7,9.5,17.8,0,16.9,20,25,31.2,7.2,10.9,4,26.5,3.7,38.7-1,27.7,0,55.6-2.1,83.2-4.2,8.8-14.4,14.1-21.2,21.1-56.9,6-120.2,2.3-177.8,3.1-5.2-11-12.5-22.1-13.7-34.1,11.9-75.1-15-71.2,51.6-69.7v-.2h0Z"/>
        <path d="M453.7,687.5c-8.9,96.9,23.5,72.9-72.9,85.6-.5-91.9,1.8-182.1,1.5-273.6-.3-11.7,16.1-4.3,23.9-6.4,0,0,48.4,0,48.4,0,2.9,0,4.3.9,5.5,3.7,17.6,36.5,33.8,74,52.5,109.9,4.4-34.9.8-69.9,2-105.1,0-30.4.5-5.5,4.8-5.6,23.9-.8,49-1.8,73-3.1-.5,90.5-6.2,180.9-8.6,271.3,0,4.7-1.5,6.1-6.3,6.2-16.6.4-33.3,1.4-50.3,2.2-5.1,1-7.4-.9-9.4-5.3-19.4-43.1-41.4-85.3-60.5-128.6-5.7,12.4-1.4,33.9-3.7,49.3v-.5h0Z"/>
        <path d="M792.8,615.9c-2.4,43-3.2,86.1-5.4,129.1-31,3-61.9,6-92.5,8.9-.4-75.4.7-194.7.6-269.1-21-.9-43.1-2.1-64.2-3.2-10.5-.3-10.5-.2-10.5-10.9,0-24.5-.2-48.9-.3-73.8,53.9-7.3,194.6,0,252.4-2.5-12.8,106.3,26.7,84.9-75.5,90.4-1.6,43.6-4.2,87.5-4.7,131.1h0Z"/>
        <path d="M569.2,146.9c24.7.3,51.3,9.6,76.6,13-17.9,81.2-36.6,161.5-54.2,242.6-7.4,29.2-42.6,21.1-65.1,23.2-30.4-.7-45.7,9.1-55.3-28.3-18-81-39.4-161.6-56.4-242.7,23.6-3.2,48.7-6.1,72.3-9.8,4.4-.7,7-.2,7.9,5.2,11.4,62.3,24.1,124,36.2,186.2,18.2-57.7,23.7-128.1,38-189.6v.2h0Z"/>
        <path d="M890.6,525.8c5.2,10.1,10.5,20.3,16.4,31.7,6.4-10,22.8-71.2,30.8-66.5,19.4,6.9,38.9,13.7,58.2,20.8,7.9,8.8,2.4,28.7-1.4,39.7-30.8,72.5-60.8,145.3-90.9,218.1-1.8,4.3-3.7,5.9-8.4,4.8-18.1-4.2-36.3-8.2-54.6-12-24.2-6.4,30.7-102.7,24.5-122-20.5-46.1-43.4-91.5-63.1-137.9,21.4-4.7,43.4-7.9,64.9-12,8.7-2.6,17.8,28.5,23.6,35.3Z"/>
        <path d="M683.7,620.7c-1.9,48.5-3.7,96.3-5.4,145-22.9,2.4-45.6,4.9-68.4,7.3,4.2-87.4-7.3-197.3,5.9-278.4,19.9-.9,50.6-1.1,71-1,.3,41.8-2.1,85.3-3.4,127h.3Z"/>
        <path d="M681.1,331.1c14.7,8,3.2,32.7,6.5,47.1,2.5,12.6-37.6,3.2-47.3,6.2-25,1.5-11.2-27.1-10.4-41.6,1.9-19.5,39.3-19.7,51.2-11.7Z"/>
        <path d="M440.9,417.8c1.2,14.9-44,5.7-51.5,8.1-19.9-1.6-6.1-29.8-5.8-42.1,5.5-23.1,43.5-18,57.8-5.2,2.6,11.6-.9,26.5-.5,39.2h0Z"/>
    </g>
    <g id="gears">
        <path d="M1080.6-108.8c-.3.4-.6.2-.9-.3.2-.2.6-.2.9.3Z"/>
        <path d="M-19.9-109.3c.4.3.2.6-.3.9-.2-.2-.2-.6.3-.9Z"/>
        <path d="M526.8,772.2c33,70.4,35,37.4-19,93.9-5.8,11.1-71.5-40.4-85.2-34.8-9.7,6.7-30.9,9.3-35.6,19.5-5.6,25-11.5,49.9-17.2,74.9-.7,3.1-2,4.4-5.1,4.9-95.7,18.2-53.8-9.1-102.1-76.2-9-.7-32.9-12.6-37.9-7.1-20.5,15.7-41.2,31-61.7,46.7-7.3,7.7-46.2-29.3-57.1-34-2.4-1.7-2.7-3.5-1.8-6.4,7.8-24.4,15.3-48.8,23-73.2.9-2.9.9-5.1-1-7.7-6.2-6.1-19.4-32.4-25.9-31.5-21.3-1.1-42.6-2.3-63.8-3.5-6.4-1.3-15.8,1.8-20-4.1-3.6-10.3-21.9-57.5-13.6-63.3,13.6-12,65.3-35.1,68-48.5-1.5-13.3,7.4-36.3-.8-46.3C3.6,507.1.4,543.1,35.9,464.3c.5-1.2,3.2-2.2,4.7-2,25.9,3.1,51.8,6.5,77.7,9.7,7-1,10.3-9.8,15.8-13.8,15.7,60.1-28,320.5,39.2,317.4,36.3,0,72.6-.4,109.2-.5,21.7,7.3,44.9,1.3,67.3-.3,3.5.4,5.3-.9,7-4,8.1-2.4,15.9-5.6,23.7-7.9.2,3.4.3,6.3.5,10,22.2-2.9,44-4.9,66.1-7,3.1-.3,3.8-1.6,3.9-4.4,2.4-35-2.5-71.9,14.9-103.7,18.7,35.8,34.9,72.5,52.2,108.9,2,4.4,4.4,6.3,9,5.4h-.3Z"/>
        <path d="M461.5,148.6c-33-33.2-30.4-16.2-12.1-59.7,14.3-.6,45.9,12,54.3.7,4.5-7.1,15-11.3,16-20.1-1.6-15.4-3.5-30.7-5.4-47,43.7-19.6,25.5-18.9,62,17.5,2.6,2.9,4.9,3.8,9,3.1,8.3-3,26.3,1.1,30.4-6.1,7-11.1,14.4-22,21.4-33.2,4.9-9.3,24.8,3.7,33.8,3.9,9.7,2.7-.3,47.3,8.8,52.7,8.3,4.2,18.2,16.6,27.3,16,52.1-12.3,35.5-24.5,64,16.2-9.7,12.7-18.9,25-28.2,37-4.6,6.3,3.6,20.9,3.9,29,3.8,10.1,32,15.4,42.2,21.6,8.8,3.5-.5,26.9.6,35.6-.9,7.2-37.7,9.7-46,13.5-8.4,3.9-10.2,15.5-14.6,23,1.6,16.5,14.7,30.7,21.2,47.3-8.2,5.3-22.7,26.8-31.9,24.2-12.3-3.9-33.9-22.3-45-19.5-15.6,8.9-18.3,2.1-22.2,22.1-23.8,2.1-20.7,19-25.1,37.2-7.6-1.2-22,4.3-25-4.2,10.5-44.8,19.9-89,30.6-133.8,9.8-2,17.2,12.6,25.4,3.3,14-9.1-16.7-24.9,7.8-32.8,5.8-1.8,13.8-1.2,13.1-9.3,4-13.3-12-7.9-16.6-16.9-6.7-13,7.6-16,7.7-25.3-4-14.4-14.4-5.7-24.3-4.7-16.3-5.1-3.4-25.2-17.4-27.6-4.4-1-7.1-.7-9.2,3.7-15.4,31-26-10.1-43.6,4.6-.3,7.8,5.6,17.5-3,23-2.2,8.7-19.4-3.9-22.7,3.7-5.1,9-5.1,9.4,2.4,16.1,6.7,4.5,10.4,16.8,1,20.6-12,6.5-11.2,7.1-6.2,19.4,2.2,2,8.6.8,11.8,2.5-8.8,43.3-12.8,89.5-26,130.6-12.8-62.1-25-124.2-36.6-186.5-1.3-11.5-25.2-.7-33.5-1.6v.2h0Z"/>
        <path d="M997.7,149.6c8.2,11.9-6.6,21.4-12.2,30.8-2.6,23,10.9,24.3,28,31.6,2.4,1,3.4,2.2,3,4.8-1.9,6.7,1.2,17.3-6.5,20.5-9.6,3.9-26,1.6-29.7,12.8-9.8,12.1,5.7,24,9.6,36.5-20.2,21.6-18.5,15.7-42.2,3.6-20-4.3-20.2,17.9-23.6,31.4-.5,7.1-16.5,3.4-22,5.3-14.8-2.9-6.9-54.6-47.3-19.7-12.5,9.6-30.2-6-24.4-20.2,1-6.9,7.3-14.4,3-21-6.4-14.5-22.6-8.4-34.8-11.1-7.2-2.7-6.5-13.9-8.9-20.3-.4-6.4,16.7-13.2,21.7-17.3,19.9-30.4-31.4-29.4-12.2-55.3,5-17.3,29.4,7,41-10.8,11.7-7.7,2.1-23,2.8-34.2.8-6.3,12.7-8.2,17.6-11.3,6.3-.6,15.4,14.6,21,18.6,3.8,3.7,9.5,1.2,13.9,1.4,13.6,1.8,16.3-15.1,23.7-23.3,3.2-6.6,17,2.1,23.3,2.6.4,8.8,1,17.4,1.1,26-.7,6.3,5.4,7.3,9,10.6,9.3,11.3,22,1,33.3-1.1,6.4-2.8,8,5.5,11.8,9.2M917.5,173.6c0-3.9-3.3-3.2-5.3-3.6-5.1-.5-6.9,6.9-10.5,8.7-8.7,5.4-12.7-13.6-19.9-4.4-1.5,1.8-1.1,5.5-.9,8.3.2,15.9-17.4.5-19.5,15.5,7.7,6.8,14.1,12,2.1,18.3-7.1,5.2-.7,13.2,6.4,11.4,15,1-.7,13.9,8,19.2,7,5.8,13.3-11.6,19.5-.9,2.1,3.4,1.9,8.9,7.2,8.4,11.2,1.1,3.2-18.7,16.3-12.8,3.9,1.8,7,5.1,10.9.8,2.6-2.6,2.9-4.7,1-7.6-4.8-7.2-1.7-12.8,6.1-13.1,4.6-.1,5.9-2.6,5.9-7.1.3-8.6-22.3-2.9-5.1-23.7-6.8-15.9-22.2,9.2-22.2-17.3h0Z"/>
        <path d="M526.2,426.1c11-.7,21.7-1,33.1-1,9.3,13.6,18,27,26.9,40.2,4.5,7.9-12.8,20.7-16.4,28.4-16.8.7-33.5,1.6-50.3,2.1-4.3,0-4.8,2.1-4.8,5.6-1.2,35,2.5,70.3-2,105.1-18.8-36-34.9-73.3-52.5-109.9-1.2-2.8-2.6-3.7-5.5-3.7-38.7.3-47.5,4-81-18.9,0,0,0-35.1,0-35.1-23.4,1.7-45.9,1.4-69.2,2.1-7.9,1-12.1,10-17.5,15.1-1.2,1.4-1,4-1.9,6.4-22,4.4-42.4,11.7-61.2,23.6-1.8-28.2,4.4-30.9-19-50.3,45.2-1.8,92-1.4,137.5-.9,11.7,0,1.4-.7,2.1-1,10.2-3.5,16.8-13.2,25.1-19.8,7.5-32.9.7-68.8,5-102.9,53,16.7,48.3-2.1,49.6,57.2-44.5-.4-38.6,5.6-45.7,45.1-1.1,6.6,4,12.7,10.8,12.7,7.5-2.4,52.1,6.6,51.6-7.6,45.9,33.7,20.6,25.2,85.3,7.9v-.4Z"/>
        <path d="M891,525.7c-26-41.7-7.1-36.6-46.3-31.7-.3-3.8-.2-7.2,0-10.6,6.5-.2,12.9-.7,19.4-.7s4.6-.7,4.8-4.4c1.2-28,1.7-55.5,4.1-83.6-27.7,0-54.6,0-82.2-.3-27.6-13.4-59.9-14.2-86.8.2-22.2,0-44.4,0-67-.4,6.8-17.8,29.5-7.5,44.2-9.5,12.2.8,3.7-25.5,6.9-33.8.7-7.8,2-15.2-6.6-19.5,13.8-6.5,14.2-6.8,23.6,4.7,5.5,6.9,10.8,8.6,19.4,6.4,9.3-4,30.7,2.4,34.6-6.5,4.5-5.4,8-19.2,16.5-16,10.5,3,21.1,5.8,31.6,9.1,8.1,5.3-.2,22.3,7,28.2,10,7.4,20.2,14.6,30.4,21.8,7.4,2.9,15.4-3.5,23-4.4,9.2-.3,18.7,23.8,25.2,30.8,2.2,7.3-8.8,14.8-11.9,21.2-3.1,8,5.6,28.9,7.2,38.5,3.2,8,14,8.2,20.6,12.5,7.2,5.8-1.4,31.5-1.1,41.2-2.5,5.9-10.9,5-16.5,7v-.2h0Z"/>
        <path d="M821.2,546.7c11.1,20.3,19.6,41.4,29.4,62.6-9.8,10.9-20.1-4.2-29.9-4.9-9.1,1.6-17.8,9.2-27.6,11.5,2.4-42.6-10.4-43.3,28.1-69.2h0Z"/>
        <path d="M610.5,614.7c0,3.4.5,72.1-.6,73.2-7.4,1.9-14.8,3.4-22.6,5,.3-28.8.6-57,2.9-85.8,7.1,2.3,13.8,4.9,20.5,7.6h-.2Z"/>
        <path d="M163.1,340.5c2.8,40.9-15.1,54.9,9.6,94,10,0,20,0,30.5.4-12.2,3.2-32.5.4-47.2,1.4,2.5-26.8-6.2-56.2-8-83.6-1.2-7.1,10.4-8.5,15.1-12.3h0Z"/>
        <path d="M684,620.6c.4-20.1,1-40.3,2.2-60.8,3.4,1.4,6.3,3.1,9.3,4.8-.2,16.1-.4,32.2-.7,48.6-3.6,2.7-7,5-10.8,7.4Z"/>
        <path d="M210.5,330.3c-7.7.2-15.5.2-23.6-.2,8.9-4.3,16.9-11.6,23.6.1h0Z"/>
        <path d="M155.7,436.5c16.4,1.3,35.5-2.8,50.6.9-16.9.2-33.9.3-51.4.2,0-.3.3-.9.8-1.1h0Z"/>
        <path d="M356,771.3c0-.2,0-.4.5-.6,0,0-.2.3-.5.6Z"/>
        <path d="M344.3,433.3c-11.1,3.5-25,0-37.4.7,12.2-.5,24.6-.7,37.4-.7h0Z"/>
        <path d="M267.2,434c-5,2.5-10.6,1.5-16.3.9,5.1-.6,10.5-.8,16.3-.9Z"/>
        <path d="M304.1,433.7c-3.6.3-7.8.5-12.2.4,3.7-.3,7.7-.4,12.2-.4Z"/>
        <path d="M172.5,434.4c-.2,0-.6,0-.9-.5.3,0,.6,0,.9.5Z"/>
        <path d="M208.2,434.7c-.4,0-4,2.1-3.6,0h3.6Z"/>
        <path d="M220.2,434.7c-.5.2-1.4.4-2.4.3.6-.3,1.3-.3,2.4-.3Z"/>
        <path d="M211.3,434.8s-.3.2-.6.2c0-.2.2-.2.6-.2Z"/>
        <path d="M204.3,434.7c1.3,1.7-2.5.5,0,0h0Z"/>
        <path d="M592.8,498.9c4.2-4,12.4-4.7,12.8-11.2.8-10.6,1.6-21.2,2.2-31.8-.7-10.6-20.5-14-17-25,4.8-10.6,9.5-21.2,14.2-31.8,2.6-6.3,9.8-1.1,15.1-1.6.5,24.5.6,49,.7,73.4,0,10.7,0,10.6,10.5,10.9,5.8,0,11.6.6,17.8,1.4.5,3.8.6,7.1.7,10.4-54.6,1.7-34.7-5.1-38.3,49,0,14.4-.3,3.6-1.1,5.8-9.8,1-14.9.5-18.5-9.5.3-13.2.7-26.3,1-39.9h-.1Z"/>
        <path d="M531.6,336.7h-.2.2Z"/>
    </g>
</svg>